<?xml version="1.0" standalone="no"?>
<!DOCTYPE svg PUBLIC "-//W3C//DTD SVG 20010904//EN"
 "http://www.w3.org/TR/2001/REC-SVG-20010904/DTD/svg10.dtd">
<svg version="1.0" xmlns="http://www.w3.org/2000/svg"
 width="500.000000pt" height="500.000000pt" viewBox="0 0 500.000000 500.000000"
 preserveAspectRatio="xMidYMid meet">
<metadata>
Created by potrace 1.11, written by Peter Selinger 2001-2013
</metadata>
<g transform="translate(0.000000,500.000000) scale(0.100000,-0.100000)"
fill="#000000" stroke="none">
<path d="M380 4984 c-94 -25 -161 -64 -230 -133 -38 -39 -77 -90 -93 -123 -61
-127 -57 21 -57 -2238 0 -2259 -4 -2111 57 -2238 37 -76 141 -180 218 -218
l60 -29 2165 0 2165 0 60 29 c77 38 181 142 218 218 61 127 57 -21 57 2238 0
2259 4 2111 -57 2238 -36 74 -141 180 -213 215 -126 61 19 57 -2235 56 -1773
0 -2068 -2 -2115 -15z m830 -856 l0 -563 337 563 338 562 282 0 c156 0 283 -2
283 -4 0 -3 -176 -298 -392 -657 -215 -359 -391 -658 -391 -664 0 -6 172 -424
383 -930 210 -506 385 -926 387 -933 4 -9 -52 -12 -260 -12 l-265 0 -49 118
c-27 64 -184 440 -349 836 l-299 718 -3 -836 -2 -836 -245 0 -245 0 0 1600 0
1600 245 0 245 0 0 -562z m2710 -1003 l0 -245 -370 0 -370 0 0 -405 0 -405
420 0 420 0 0 -245 0 -245 -420 0 -420 0 0 -705 0 -705 -245 0 -245 0 0 1600
0 1600 615 0 615 0 0 -245z"/>
</g>
</svg>
