<?xml version="1.0" encoding="utf-8"?>
<!-- Generator: Adobe Illustrator 18.1.1, SVG Export Plug-In . SVG Version: 6.00 Build 0)  -->
<svg version="1.1" id="Layer_1" xmlns="http://www.w3.org/2000/svg" xmlns:xlink="http://www.w3.org/1999/xlink" x="0px" y="0px"
	 viewBox="0 0 102 102" enable-background="new 0 0 102 102" xml:space="preserve">
<g>
	<circle fill="#002F51" cx="51" cy="51" r="50"/>
	<path fill="#C99524" d="M51.03,99.54C24.27,99.54,2.5,77.77,2.5,51.01S24.27,2.48,51.03,2.48s48.53,21.77,48.53,48.53
		S77.79,99.54,51.03,99.54z"/>
	<path fill="#002F51" d="M58.56,33.38c-0.94,0.02-2.19,0.21-3.76,0.21c-1.23,0-3.02-0.21-3.02-0.21H50.8v0.25l1.83,0.68
		c0.75,0.29,1.47,0.5,1.47,1.15c0,0.5-0.18,1.15-0.5,2.08l-5.74,17.6l-7.53-22.23h-0.61l-8.53,22.05l-5.02-16.92
		c-0.32-1.08-0.5-1.94-0.5-2.62c0-0.64,0.76-1,1.87-1.36l1.32-0.43v-0.25h-0.37l-0.29,0.01c-1.32,0.03-2.67,0.22-3.95,0.22
		c-1.21,0-2.38-0.13-3.52-0.23h-0.79v0.25l1.18,0.5c0.93,0.4,1.61,1.01,2.08,2.58l6.85,22.51h0.75l8.64-21.15l7.35,21.15h0.86
		l7.56-21.97c0.54-1.86,1.15-2.54,1.94-2.97l1.58-0.65v-0.25h-0.21H58.56L58.56,33.38z"/>
	<path fill="#002F51" d="M78.13,36.62c0.03,0.17,0.06,0.31,0.08,0.52c0.08,0.7,0.16,3.98,0.16,8.5v4.24c0,3.02-0.15,4.67-0.85,6.07
		c-1.1,2.25-2.44,3.68-6.6,3.68c-5.56,0-6.85-3.02-6.85-7.07V38.62c0-0.9,0.02-1.46,0.09-1.83l0.02-0.17
		c0.14-0.68,0.75-0.94,1.86-1.3l1.33-0.43v-0.25h-0.38l-0.29,0c-1.32,0.04-2.67,0.22-3.95,0.22c-1.2,0-2.38-0.13-3.52-0.22h-0.79
		v0.25l1.18,0.5c0.63,0.27,1.15,0.53,1.56,1.23l0.06,0.17c0.04,0.37,0.06,0.93,0.06,1.83v14.77c0,4.05,1.58,7.77,9.57,7.77
		c5.37,0,6.75-2.06,8.01-4.82c0.7-1.55,0.81-3.02,0.81-6.85v-3.83c0-4.53,0.09-7.81,0.16-8.5c0.02-0.21,0.05-0.39,0.13-0.53
		c0.35-0.6,0.66-0.94,1.12-1.19l1.58-0.65v-0.25h-0.21c-0.9,0.02-2.15,0.21-3.72,0.21c-1.22,0-3.03-0.21-3.03-0.21h-0.97v0.25
		l1.83,0.68C77.33,35.75,78.02,36,78.13,36.62L78.13,36.62z"/>
	<path fill="#002F51" d="M59.8,73.11c-1.37,0.48-3.36,1.15-5.99,1.15c-6.7,0-11.44-5.29-11.44-12.81c0-7.07,4.29-11.6,10.96-11.6
		c3.04,0,5.67,0.76,7.67,2.19c0.03,0.11,0.45,0.32,0.52,0.54l1.63-2.32l-0.11-0.12c-1.85-0.64-5.08-1.66-9.41-1.66
		c-7.4,0-14.52,5.03-14.52,13.49c0,8.88,6.59,13.68,14.37,13.68c4.03,0,7.63-1.14,9.24-1.72l0.01-8.86V64.7c0-0.64,0.75-1,1.86-1.36
		l1.32-0.43v-0.25h-0.38h-0.29c-1.32,0.04-2.67,0.22-3.95,0.22c-1.2,0-2.39-0.13-3.52-0.22h-0.79v0.25l1.18,0.5
		c0.67,0.28,1.2,0.67,1.62,1.45l0.02,0.22L59.8,73.11L59.8,73.11L59.8,73.11z"/>
	<path fill="#002F51" d="M51.03,3.48C24.82,3.48,3.5,24.81,3.5,51.01s21.32,47.53,47.53,47.53c26.21,0,47.53-21.32,47.53-47.53
		S77.23,3.48,51.03,3.48z M51.03,88.61c-20.73,0-37.59-16.86-37.59-37.59S30.3,13.42,51.03,13.42s37.59,16.86,37.59,37.59
		S71.76,88.61,51.03,88.61z"/>
	<path fill="#002F51" d="M51.03,14.42c-20.18,0-36.59,16.42-36.59,36.59c0,20.18,16.42,36.59,36.59,36.59s36.59-16.42,36.59-36.59
		C87.62,30.84,71.2,14.42,51.03,14.42z M51.03,86.61c-19.63,0-35.59-15.97-35.59-35.59S31.4,15.42,51.03,15.42
		s35.59,15.97,35.59,35.59S70.65,86.61,51.03,86.61z"/>
	<g>
		<polygon fill="#FFFFFF" points="18.6,81.9 19.94,81.74 19.93,83.09 20.73,82.05 21.62,83.01 21.46,81.67 22.8,81.69 21.76,80.9 
			22.77,79.94 21.43,80.1 21.44,78.75 20.58,79.84 19.67,78.88 19.83,80.21 18.5,80.21 19.54,80.99 18.6,81.9 		"/>
		<polygon fill="#FFFFFF" points="82.1,82.89 82.08,81.49 83.46,81.66 82.48,80.72 83.55,79.92 82.17,79.93 82.33,78.56 
			81.42,79.54 80.53,78.4 80.55,79.79 79.17,79.63 80.2,80.64 79.11,81.46 80.5,81.44 80.35,82.8 81.26,81.82 82.1,82.89 		"/>
	</g>
	<g>
		<path fill="#FFFFFF" d="M30.94,87.53c0.44,0.24,0.79,0.43,1.25,0.66c0.07,0.05-0.05,0.26-0.11,0.26l-0.12-0.04
			c-0.18-0.05-0.3-0.07-0.32-0.04c-0.03,0.06-0.04,0.11-0.06,0.25c-0.06,0.41-0.11,0.97-0.15,1.39c0.39-0.31,0.69-0.6,0.98-0.86
			c0.11-0.1,0.19-0.19,0.21-0.24c0.02-0.04-0.02-0.1-0.12-0.2l-0.1-0.09c-0.02-0.07,0.08-0.24,0.16-0.23
			c0.22,0.14,0.39,0.24,0.56,0.34c0.2,0.11,0.39,0.21,0.55,0.28c0.05,0.06-0.02,0.22-0.11,0.26l-0.11-0.03
			c-0.26-0.08-0.35-0.04-0.6,0.16c-0.72,0.54-1.46,1.13-2.17,1.71c-0.07,0.02-0.12,0-0.19-0.04c-0.07-0.04-0.12-0.07-0.13-0.14
			c0.06-0.46,0.15-1.48,0.19-2.04c-0.38,0.26-1.32,0.96-1.67,1.23c-0.06,0.02-0.12,0-0.19-0.04c-0.07-0.04-0.12-0.07-0.13-0.14
			c0.1-0.98,0.2-1.97,0.26-2.89c0.01-0.26-0.04-0.32-0.14-0.42l-0.11-0.1c-0.02-0.08,0.07-0.24,0.16-0.23
			c0.28,0.17,0.5,0.3,0.79,0.46L30.94,87.53z M30.59,87.71c-0.09-0.08-0.19-0.14-0.32-0.21c-0.22-0.12-0.37-0.17-0.42-0.09
			c-0.02,0.04-0.05,0.14-0.06,0.27c-0.04,0.3-0.1,1.08-0.11,1.37c0.2-0.13,0.72-0.51,0.83-0.63c0.07-0.08,0.11-0.14,0.14-0.2
			C30.71,88.1,30.71,87.81,30.59,87.71z"/>
		<path fill="#FFFFFF" d="M35.98,89.91c0.47,0.18,0.85,0.32,1.33,0.49c0.08,0.04-0.01,0.26-0.08,0.27l-0.12-0.02
			c-0.19-0.03-0.3-0.03-0.32,0c-0.02,0.06-0.03,0.11-0.03,0.25c0,0.41,0.02,0.98,0.04,1.4c0.35-0.36,0.61-0.68,0.86-0.98
			c0.1-0.12,0.16-0.21,0.18-0.26c0.01-0.04-0.03-0.1-0.15-0.18l-0.12-0.08c-0.02-0.07,0.04-0.25,0.13-0.25
			c0.24,0.11,0.42,0.19,0.6,0.26c0.22,0.08,0.41,0.15,0.58,0.2c0.06,0.06,0.01,0.23-0.08,0.27l-0.11-0.02
			c-0.27-0.04-0.35,0.01-0.57,0.24c-0.64,0.63-1.3,1.32-1.92,1.99c-0.06,0.03-0.12,0.01-0.19-0.01c-0.08-0.03-0.12-0.06-0.15-0.12
			c0-0.46-0.05-1.49-0.09-2.05c-0.34,0.31-1.17,1.13-1.49,1.44c-0.06,0.03-0.12,0.01-0.19-0.01c-0.07-0.03-0.12-0.06-0.15-0.12
			c-0.03-0.98-0.07-1.98-0.13-2.9c-0.02-0.26-0.08-0.32-0.2-0.4l-0.12-0.09c-0.03-0.08,0.03-0.24,0.12-0.25
			c0.3,0.13,0.54,0.23,0.85,0.35L35.98,89.91z M35.66,90.14c-0.1-0.06-0.21-0.12-0.35-0.17c-0.24-0.09-0.39-0.12-0.42-0.04
			c-0.02,0.04-0.03,0.14-0.03,0.27c0,0.3,0.04,1.09,0.08,1.38c0.18-0.16,0.64-0.6,0.74-0.73c0.06-0.09,0.09-0.16,0.11-0.22
			C35.84,90.51,35.8,90.23,35.66,90.14z"/>
		<path fill="#FFFFFF" d="M41.3,91.58c0.49,0.12,0.88,0.2,1.38,0.3c0.08,0.03,0.02,0.26-0.04,0.28l-0.12,0
			c-0.19,0-0.31,0.01-0.32,0.05c-0.01,0.06-0.01,0.11,0.01,0.26c0.05,0.41,0.15,0.96,0.23,1.38c0.29-0.41,0.51-0.76,0.72-1.09
			c0.08-0.13,0.13-0.23,0.14-0.29c0.01-0.04-0.04-0.09-0.17-0.15l-0.12-0.06c-0.03-0.07,0.01-0.25,0.1-0.27
			c0.25,0.08,0.44,0.13,0.63,0.17c0.23,0.05,0.43,0.09,0.61,0.12c0.06,0.05,0.04,0.22-0.04,0.28l-0.11,0
			c-0.27-0.01-0.34,0.06-0.54,0.32c-0.54,0.71-1.1,1.48-1.62,2.23c-0.06,0.04-0.11,0.03-0.19,0.01c-0.08-0.02-0.13-0.04-0.17-0.1
			c-0.06-0.46-0.25-1.46-0.37-2.02c-0.3,0.36-1.01,1.28-1.28,1.63c-0.06,0.04-0.11,0.03-0.19,0.01s-0.13-0.04-0.17-0.1
			c-0.17-0.97-0.34-1.95-0.53-2.85c-0.06-0.25-0.13-0.3-0.25-0.37l-0.13-0.07c-0.04-0.07,0-0.25,0.09-0.27
			c0.32,0.09,0.56,0.16,0.89,0.23L41.3,91.58z M41.02,91.85c-0.1-0.05-0.23-0.09-0.37-0.12c-0.25-0.06-0.4-0.06-0.42,0.02
			c-0.01,0.05-0.01,0.15,0.01,0.27c0.04,0.3,0.19,1.07,0.27,1.35c0.16-0.18,0.55-0.68,0.63-0.83c0.05-0.1,0.06-0.17,0.08-0.23
			C41.24,92.2,41.17,91.92,41.02,91.85z"/>
		<path fill="#FFFFFF" d="M43.72,94.8c0.06-0.37,0.38-0.61,0.74-0.56C44.84,94.3,45.06,94.66,45,95c-0.05,0.36-0.36,0.6-0.74,0.54
			C43.95,95.49,43.66,95.19,43.72,94.8z"/>
		<path fill="#FFFFFF" d="M48.43,92.66c0.5,0.03,0.9,0.04,1.41,0.06c0.09,0.01,0.07,0.25,0.01,0.28l-0.12,0.02
			c-0.19,0.03-0.3,0.06-0.3,0.1c0,0.06,0.01,0.11,0.05,0.25c0.12,0.39,0.32,0.92,0.47,1.32c0.22-0.45,0.37-0.83,0.52-1.2
			c0.06-0.14,0.09-0.25,0.09-0.31c0-0.04-0.06-0.08-0.19-0.12l-0.13-0.04c-0.04-0.06-0.03-0.25,0.05-0.28
			c0.26,0.03,0.45,0.05,0.65,0.06c0.23,0.01,0.44,0.02,0.62,0.01c0.07,0.04,0.08,0.21,0.01,0.28l-0.11,0.02
			c-0.27,0.04-0.33,0.12-0.47,0.41c-0.41,0.79-0.83,1.65-1.21,2.48c-0.05,0.05-0.11,0.05-0.19,0.05c-0.08,0-0.14-0.02-0.18-0.07
			c-0.14-0.44-0.5-1.4-0.71-1.92c-0.23,0.4-0.77,1.44-0.98,1.83c-0.05,0.04-0.11,0.05-0.19,0.04c-0.08,0-0.13-0.02-0.18-0.07
			c-0.33-0.92-0.67-1.86-1.01-2.72c-0.1-0.24-0.18-0.27-0.31-0.32l-0.14-0.05c-0.05-0.07-0.04-0.24,0.04-0.28
			c0.33,0.03,0.58,0.06,0.92,0.08L48.43,92.66z M48.2,92.98c-0.11-0.03-0.24-0.04-0.38-0.05c-0.25-0.01-0.41,0.01-0.41,0.1
			c0,0.05,0.02,0.14,0.06,0.27c0.1,0.29,0.37,1.02,0.5,1.29c0.12-0.21,0.43-0.77,0.48-0.93c0.03-0.1,0.03-0.17,0.04-0.24
			C48.48,93.28,48.35,93.02,48.2,92.98z"/>
		<path fill="#FFFFFF" d="M55.45,92.74c0.06,0.04,0.08,0.11,0.08,0.2c0.01,0.13-0.02,0.27-0.1,0.33l-0.59,0.03
			c0.02,0.07,0.03,0.14,0.04,0.28c0.04,0.63-0.29,1.42-1.56,1.49c-0.13,0.01-0.24,0-0.33,0c-0.08,0.04-0.13,0.1-0.12,0.2
			c0.01,0.18,0.18,0.28,0.42,0.26c0.27-0.02,0.6-0.05,0.97-0.07c0.6-0.04,1.25,0.09,1.29,0.89c0.03,0.5-0.25,0.97-0.65,1.25
			c-0.4,0.27-0.91,0.4-1.38,0.43c-1.15,0.07-1.59-0.44-1.62-0.93c-0.01-0.19,0.1-0.33,0.23-0.41c0.15-0.11,0.29-0.22,0.38-0.27
			c0.09-0.06,0.07-0.1,0-0.11c-0.3-0.08-0.52-0.33-0.53-0.61c0-0.06,0.01-0.13,0.05-0.17c0.22-0.16,0.44-0.35,0.49-0.4
			c0.07-0.06,0.1-0.11,0.05-0.18c-0.41-0.14-0.71-0.5-0.74-0.99c-0.04-0.66,0.45-1.31,1.48-1.37c0.47-0.03,0.9,0.08,1.21,0.23
			L55.45,92.74z M53.4,96.32c-0.21,0.01-0.37,0.07-0.44,0.13c-0.08,0.08-0.1,0.18-0.1,0.29c0.03,0.54,0.46,0.87,1.09,0.83
			c0.5-0.03,0.82-0.3,0.8-0.68c-0.03-0.46-0.38-0.63-0.82-0.6L53.4,96.32z M53.48,94.69c0.25-0.01,0.44-0.26,0.41-0.84
			c-0.04-0.65-0.29-0.94-0.57-0.92c-0.25,0.01-0.47,0.27-0.44,0.81C52.91,94.35,53.16,94.71,53.48,94.69z"/>
		<path fill="#FFFFFF" d="M59.52,94.08c0.07,0.47,0.13,0.67,0.32,0.64c0.1-0.02,0.22-0.07,0.31-0.11c0.07,0,0.13,0.29,0.03,0.34
			c-0.77,0.16-1.39,0.51-1.42,0.52c-0.06,0-0.09-0.03-0.11-0.08c0-0.1-0.01-0.23-0.02-0.29c-0.01-0.05-0.05-0.07-0.1-0.07
			c-0.28,0.25-0.52,0.47-1.01,0.55c-0.66,0.1-0.98-0.19-1.09-0.86l-0.21-1.34c-0.07-0.42-0.12-0.45-0.32-0.48l-0.11-0.01
			c-0.07-0.06-0.08-0.21-0.01-0.28c0.26-0.05,0.53-0.12,0.76-0.19c0.23-0.08,0.44-0.21,0.48-0.21c0.05-0.01,0.1,0.04,0.11,0.08
			c0.02,0.2,0.04,0.42,0.09,0.7l0.21,1.3c0.06,0.38,0.17,0.7,0.68,0.62c0.22-0.04,0.33-0.16,0.39-0.22
			c0.05-0.05,0.06-0.17,0.05-0.25l-0.24-1.49c-0.05-0.32-0.12-0.38-0.41-0.37l-0.11,0c-0.07-0.05-0.09-0.24,0-0.28
			c0.28-0.06,0.56-0.14,0.81-0.21c0.27-0.08,0.49-0.21,0.54-0.22c0.03,0,0.08,0.03,0.09,0.08c0.01,0.14,0.04,0.41,0.09,0.7
			L59.52,94.08z"/>
		<path fill="#FFFFFF" d="M60.91,94.29c-0.09-0.36,0.12-0.71,0.47-0.8c0.37-0.09,0.71,0.16,0.79,0.49c0.09,0.36-0.1,0.69-0.47,0.78
			C61.38,94.84,61,94.67,60.91,94.29z"/>
		<path fill="#FFFFFF" d="M63.84,92.07c-0.17,0.06-0.19,0.08-0.15,0.2c0.18,0.57,0.73,1.01,1.44,0.78c0.21-0.07,0.49-0.21,0.58-0.62
			c0.08-0.04,0.21-0.02,0.25,0.11c-0.1,0.75-0.6,1.15-1.05,1.3c-1.03,0.33-1.82-0.21-2.08-1.04c-0.31-0.96,0.14-1.93,1.09-2.24
			c0.79-0.25,1.38,0.12,1.57,0.7c0.05,0.15,0.04,0.26-0.19,0.34L63.84,92.07z M64.24,91.58c0.11-0.03,0.22-0.09,0.29-0.17
			c0.03-0.04,0.02-0.12,0-0.19c-0.08-0.25-0.28-0.37-0.54-0.29c-0.32,0.1-0.5,0.5-0.42,0.74c0.03,0.11,0.14,0.08,0.39,0L64.24,91.58
			z"/>
		<path fill="#FFFFFF" d="M69.58,90.47c0.3,0.69,0.4,0.85,0.54,0.79c0.13-0.06,0.18-0.1,0.29-0.2c0.11,0.03,0.19,0.21,0.14,0.31
			c-0.71,0.36-1.18,0.83-1.21,0.83c-0.05,0.02-0.13,0-0.17-0.05l-0.08-0.24c-0.03-0.05-0.07-0.06-0.09-0.03
			c-0.19,0.27-0.38,0.54-0.66,0.66c-0.84,0.36-1.68-0.05-2.03-0.84c-0.45-1.04,0.04-2.03,1.01-2.45c0.16-0.07,0.34-0.13,0.43-0.14
			c0.04-0.04,0.04-0.11,0.01-0.17l-0.41-0.94c-0.13-0.29-0.16-0.37-0.35-0.4l-0.16-0.02c-0.08-0.02-0.13-0.15-0.1-0.22
			c0.28-0.21,0.66-0.58,0.95-0.9c0.05-0.02,0.1-0.03,0.15,0c0.12,0.31,0.24,0.62,0.44,1.08L69.58,90.47z M68.21,89.91
			c-0.05-0.12-0.1-0.18-0.16-0.23c-0.16-0.12-0.37-0.16-0.54-0.09c-0.37,0.16-0.57,0.71-0.24,1.48c0.21,0.48,0.72,1.06,1.32,0.8
			c0.1-0.04,0.19-0.12,0.26-0.22c0.06-0.09,0.02-0.18-0.03-0.32L68.21,89.91z"/>
		<path fill="#FFFFFF" d="M73.83,88.45c0.23,0.41,0.36,0.58,0.52,0.49c0.09-0.05,0.18-0.14,0.25-0.21c0.07-0.02,0.22,0.22,0.15,0.31
			c-0.67,0.42-1.12,0.97-1.14,0.98c-0.05,0.02-0.1,0-0.13-0.04c-0.03-0.09-0.09-0.21-0.12-0.26c-0.02-0.04-0.08-0.05-0.12-0.03
			c-0.17,0.33-0.33,0.63-0.76,0.87c-0.58,0.33-0.98,0.16-1.32-0.43l-0.67-1.18c-0.21-0.37-0.27-0.38-0.46-0.33l-0.11,0.02
			c-0.08-0.04-0.15-0.17-0.11-0.26c0.23-0.14,0.46-0.3,0.64-0.45c0.19-0.15,0.34-0.35,0.37-0.37c0.04-0.02,0.1,0,0.13,0.04
			c0.08,0.18,0.18,0.37,0.33,0.62l0.65,1.15c0.19,0.33,0.4,0.6,0.85,0.35c0.19-0.11,0.25-0.26,0.29-0.34c0.03-0.06,0-0.18-0.04-0.25
			l-0.75-1.32c-0.16-0.28-0.24-0.31-0.51-0.21l-0.11,0.04c-0.08-0.02-0.17-0.19-0.1-0.26c0.24-0.16,0.48-0.33,0.68-0.48
			c0.22-0.17,0.39-0.37,0.43-0.39c0.03-0.02,0.08,0,0.12,0.04c0.06,0.13,0.18,0.37,0.33,0.62L73.83,88.45z"/>
	</g>
	<g>
		<path fill="#FFFFFF" d="M8.95,68.49c0.15,0.18,0.3,0.27,0.41,0.29c0.19,0.02,0.56,0.01,1.24-0.05c1.26-0.13,3.97-0.37,5.35-0.56
			c0.07,0.03,0.17,0.14,0.23,0.25c0.05,0.1,0.07,0.19,0.06,0.27c-0.16,0.21-0.4,0.52-0.59,0.76l-0.63,0.83
			c-0.21,0.28-0.41,0.53-0.5,0.69c0.19,0,0.46-0.01,0.77-0.03l1.07-0.06c0.35-0.02,0.66-0.07,1.03-0.08
			c0.07,0.02,0.16,0.13,0.23,0.26c0.05,0.1,0.06,0.17,0.06,0.27c-0.29,0.34-0.89,1.12-1.38,1.78l-2.31,3.13
			c-0.39,0.52-0.4,0.6-0.31,0.92l0.08,0.24c-0.05,0.12-0.23,0.21-0.33,0.13c-0.16-0.33-0.35-0.71-0.6-1.15
			c-0.21-0.39-0.41-0.72-0.61-1.05c0-0.09,0.2-0.25,0.3-0.19l0.11,0.14c0.11,0.14,0.19,0.18,0.25,0.15
			c0.06-0.03,0.37-0.44,0.84-1.05l1.46-1.93c0.41-0.54,0.58-0.81,0.74-1.03c-0.23-0.01-0.76,0.02-1.15,0.05l-0.32,0.03
			c-0.17,0.02-0.3,0.05-0.36,0.08c-0.05,0.03-0.2,0.19-0.27,0.27l-1.39,1.86c-0.33,0.44-0.36,0.54-0.21,0.89l0.04,0.09
			c-0.02,0.13-0.23,0.22-0.32,0.14c-0.19-0.39-0.37-0.73-0.58-1.12c-0.25-0.45-0.44-0.78-0.58-1c-0.03-0.12,0.21-0.24,0.29-0.2
			l0.12,0.13c0.08,0.09,0.19,0.2,0.25,0.17c0.07-0.04,0.15-0.13,0.22-0.22l0.46-0.59c0.14-0.18,0.32-0.42,0.43-0.59l-0.75,0.05
			l-0.22,0.02c-0.42,0.03-0.74,0.07-0.79,0.1c-0.06,0.03-0.07,0.08-0.03,0.24l0.11,0.35c-0.03,0.09-0.23,0.2-0.32,0.15
			c-0.12-0.26-0.29-0.58-0.45-0.87c-0.19-0.34-0.37-0.66-0.52-0.88c0-0.09,0.21-0.23,0.31-0.18l0.19,0.22
			c0.22,0.26,0.26,0.33,0.95,0.34c0.47,0.01,1.03-0.01,1.32-0.02c0.2-0.01,0.52-0.03,0.56-0.06c0.03-0.01,0.07-0.05,0.18-0.19
			l0.66-0.9c0.36-0.49,0.57-0.77,0.67-0.89c-1.25,0.14-2.63,0.26-3.93,0.43c-0.18,0.02-0.74,0.11-0.83,0.16
			c-0.09,0.05-0.05,0.21-0.02,0.34l0.05,0.22c-0.04,0.11-0.23,0.2-0.32,0.15c-0.14-0.29-0.33-0.65-0.47-0.92
			c-0.17-0.31-0.32-0.56-0.47-0.8c0-0.1,0.19-0.22,0.29-0.19L8.95,68.49z"/>
		<path fill="#FFFFFF" d="M10.16,64.61c0.27-0.08,0.28-0.1,0.2-0.36l-0.21-0.66C9.99,63.1,9.89,63,9.4,63.05l-0.25,0.03
			c-0.1-0.04-0.17-0.28-0.1-0.36c0.31-0.08,0.66-0.18,1.02-0.29c0.36-0.12,0.7-0.24,1-0.35c0.1,0.02,0.19,0.25,0.12,0.35l-0.22,0.12
			c-0.43,0.24-0.47,0.38-0.31,0.88l0.21,0.66c0.08,0.26,0.09,0.26,0.38,0.17l1.13-0.36c0.44-0.14,0.73-0.28,0.86-0.44
			c0.13-0.18,0.15-0.38-0.07-1.08c-0.27-0.83-0.4-1.14-1.64-1.32c-0.13-0.04-0.17-0.29-0.07-0.37c0.51-0.12,1.35-0.14,1.65-0.09
			c0.14,0.51,0.43,1.43,0.68,2.21l0.4,1.24c0.15,0.46,0.3,0.92,0.55,1.63c-0.03,0.09-0.26,0.17-0.33,0.11l-0.21-0.43
			c-0.2-0.41-0.28-0.45-1.16-0.17l-3.55,1.14c-0.87,0.28-0.91,0.35-0.85,0.81l0.03,0.25c-0.03,0.1-0.25,0.17-0.34,0.09
			c-0.12-0.45-0.26-0.92-0.41-1.38l-0.65-2.02c-0.2-0.61-0.38-1.15-0.44-1.27c0.15-0.06,0.81-0.34,1.44-0.6
			c0.12,0,0.21,0.22,0.15,0.34c-0.3,0.21-0.54,0.44-0.64,0.6c-0.12,0.24-0.15,0.56,0,1.03l0.24,0.76c0.1,0.31,0.12,0.31,0.47,0.2
			L10.16,64.61z"/>
		<path fill="#FFFFFF" d="M12.73,57.81c0.15,0.91-0.01,1.51-0.09,1.74c-0.18,0.22-0.87,0.47-1.54,0.58
			c-0.14-0.05-0.19-0.27-0.09-0.37c0.61-0.31,1.4-1.12,1.26-1.96c-0.12-0.73-0.68-0.98-1.17-0.9c-0.8,0.13-1.15,0.96-1.34,1.61
			c-0.24,0.77-0.7,1.65-1.67,1.81c-1.11,0.2-2.03-0.54-2.27-1.97c-0.06-0.33-0.08-0.74-0.03-1.15c0.02-0.13,0.02-0.23,0.02-0.35
			c0.2-0.12,0.72-0.3,1.38-0.42c0.13,0.03,0.18,0.27,0.09,0.38c-0.47,0.25-1.12,0.8-1,1.51c0.11,0.65,0.59,0.93,1.09,0.85
			c0.45-0.08,0.8-0.55,0.97-1.09l0.24-0.71c0.22-0.67,0.66-1.54,1.75-1.72C11.52,55.46,12.48,56.32,12.73,57.81z"/>
		<path fill="#FFFFFF" d="M6.14,52.55c-0.24,0-0.29,0.01-0.28,0.25l0.01,0.62c0.02,0.73,0.42,0.93,1.16,1.21
			c0.06,0.12,0.05,0.31-0.08,0.37c-0.69-0.2-1.32-0.23-1.71-0.29c-0.03-0.04-0.05-0.09-0.05-0.14c0-0.05,0.01-0.1,0.04-0.14
			c0.17-0.05,0.21-0.08,0.19-0.84l-0.08-3.72c-0.01-0.66-0.03-0.81-0.24-0.89c-0.02-0.04-0.03-0.07-0.03-0.13
			c0-0.06,0.04-0.13,0.07-0.15c0.34,0.09,1.15,0.14,1.72,0.11c0.09,0.05,0.12,0.32,0.04,0.37c-0.64,0.18-1.1,0.33-1.09,1.08
			l0.01,0.6c0,0.24,0.04,0.27,0.3,0.26l4.41-0.09c0.93-0.02,1.01-0.08,1.06-0.53l0.04-0.4c0.06-0.07,0.29-0.08,0.35-0.01
			c-0.01,0.65-0.01,1.15,0,1.6c0.01,0.48,0.03,1,0.07,1.7c-0.06,0.08-0.29,0.09-0.35,0.01l-0.06-0.45
			c-0.06-0.45-0.15-0.51-1.08-0.49L6.14,52.55z"/>
		<path fill="#FFFFFF" d="M8.3,45.43c0.28,0.04,0.3,0.03,0.33-0.24l0.09-0.68c0.07-0.52,0.02-0.64-0.45-0.81l-0.24-0.08
			C7.96,43.53,8,43.29,8.09,43.25c0.31,0.06,0.67,0.12,1.05,0.17c0.38,0.05,0.74,0.09,1.06,0.11c0.08,0.06,0.06,0.31-0.04,0.37
			L9.9,43.91c-0.49,0.04-0.58,0.14-0.65,0.66l-0.09,0.68c-0.04,0.27-0.03,0.28,0.27,0.32l1.18,0.16c0.46,0.06,0.78,0.06,0.96-0.03
			c0.2-0.1,0.3-0.28,0.4-1.01c0.12-0.86,0.13-1.2-0.92-1.9c-0.1-0.09-0.03-0.34,0.1-0.36c0.51,0.11,1.28,0.45,1.53,0.63
			c-0.09,0.52-0.23,1.47-0.34,2.29l-0.17,1.29c-0.06,0.48-0.12,0.96-0.2,1.71c-0.07,0.07-0.31,0.04-0.35-0.05l-0.01-0.48
			c-0.01-0.46-0.06-0.52-0.97-0.65l-3.7-0.5c-0.9-0.12-0.97-0.07-1.12,0.37l-0.08,0.24c-0.07,0.08-0.3,0.04-0.34-0.07
			c0.08-0.46,0.16-0.95,0.22-1.42l0.28-2.1c0.08-0.63,0.15-1.2,0.15-1.33c0.16,0.01,0.88,0.04,1.55,0.08
			c0.1,0.05,0.09,0.28-0.01,0.37c-0.36,0.06-0.68,0.16-0.83,0.27c-0.21,0.16-0.37,0.45-0.44,0.93l-0.11,0.79
			c-0.04,0.33-0.02,0.33,0.34,0.38L8.3,45.43z"/>
		<path fill="#FFFFFF" d="M8.24,40.09c-0.96-0.29-1.07-0.3-1.25,0.08l-0.12,0.25c-0.08,0.08-0.32,0.01-0.33-0.12
			c0.17-0.73,0.35-1.49,0.63-2.4c0.25-0.81,0.58-1.48,0.91-1.77c0.49-0.46,1.06-0.6,1.67-0.42c0.85,0.26,1.04,0.94,1.13,1.45
			c0.02,0.11,0.08,0.13,0.2,0.11c1.47-0.25,2.31-0.42,2.84-0.76c0.28-0.19,0.41-0.42,0.46-0.56c0.07-0.07,0.22-0.03,0.26,0.04
			c0.02,0.17-0.05,0.49-0.14,0.78c-0.27,0.88-0.75,1.34-1.57,1.56c-0.6,0.15-1.14,0.23-1.71,0.3c-0.29,0.04-0.42,0.17-0.49,0.41
			c-0.1,0.33-0.09,0.36,0.1,0.42l1.18,0.35c0.88,0.27,0.97,0.23,1.17-0.18l0.13-0.24c0.07-0.05,0.3,0.02,0.33,0.1
			c-0.17,0.5-0.31,0.94-0.45,1.4c-0.14,0.48-0.26,0.9-0.39,1.41c-0.08,0.06-0.31-0.01-0.34-0.1l0.03-0.27c0.05-0.46,0-0.53-0.88-0.8
			L8.24,40.09z M9.85,39.14c0.33,0.1,0.37,0.08,0.54-0.48c0.1-0.34,0.08-0.57-0.05-0.81c-0.11-0.21-0.37-0.49-0.93-0.66
			c-0.86-0.26-1.57,0.08-1.8,0.83c-0.12,0.39-0.1,0.42,0.36,0.56L9.85,39.14z"/>
		<path fill="#FFFFFF" d="M15.92,29.79c0.58,0.29,1.14,0.58,1.45,0.71c0.08,0.12,0.05,0.42-0.06,0.63c0,0.01-0.61,0.07-1.34,0.23
			l-3.59,0.77c-0.89,0.2-1.42,0.3-1.63,0.4c0.07,0.09,0.22,0.17,0.55,0.33l1.73,0.87c0.72,0.37,1.41,0.67,1.7,0.69
			c0.23,0.01,0.39-0.16,0.55-0.37l0.16-0.23c0.11-0.04,0.29,0.08,0.31,0.16c-0.26,0.47-0.45,0.83-0.63,1.18
			c-0.17,0.33-0.32,0.67-0.48,1.01c-0.08,0.03-0.28-0.05-0.31-0.16l0.05-0.17c0.08-0.26,0.1-0.47-0.05-0.64
			c-0.19-0.22-0.85-0.58-1.57-0.95l-2.27-1.14C10,32.87,9.85,32.81,9.7,32.8c-0.19,0-0.36,0.07-0.56,0.36l-0.16,0.23
			c-0.1,0.03-0.31-0.09-0.29-0.19c0.23-0.41,0.46-0.85,0.65-1.22c0.15-0.3,0.27-0.57,0.35-0.76c0.45,0.11,1.42-0.12,2.78-0.45
			l1.26-0.3c0.66-0.16,1.11-0.26,1.41-0.36c-0.07-0.08-0.22-0.16-0.38-0.24l-1.23-0.62c-0.72-0.36-1.41-0.67-1.7-0.69
			c-0.23-0.01-0.39,0.15-0.55,0.37l-0.16,0.22c-0.11,0.04-0.29-0.08-0.31-0.16c0.26-0.47,0.45-0.82,0.63-1.18
			c0.17-0.33,0.32-0.66,0.48-1.02c0.08-0.03,0.28,0.05,0.31,0.16l-0.05,0.17c-0.08,0.25-0.09,0.46,0.05,0.63
			c0.19,0.22,0.84,0.59,1.57,0.96L15.92,29.79z"/>
		<path fill="#FFFFFF" d="M23.07,21.61c0.31,0.28,0.48,0.4,0.63,0.28c0.06,0,0.18,0.12,0.16,0.18c-0.09,0.15-0.24,0.36-0.35,0.62
			c-0.15,0.33-0.63,1.06-1,1.48c-0.45,0.51-0.89,0.89-1.57,1.24c-1.13,0.56-2.49,0.42-3.56-0.54c-0.93-0.83-1.38-1.98-1.08-3.32
			c0.18-0.75,0.6-1.46,1.16-2.1c0.74-0.83,1.28-1.08,1.5-1.32c0.24,0.18,0.77,0.64,1.29,0.97c0.06,0.1-0.12,0.31-0.24,0.3
			c-0.91-0.39-1.68-0.23-2.3,0.46c-1.06,1.19-0.59,2.64,0.59,3.69c1.07,0.95,2.03,1.15,2.79,0.96c0.56-0.15,0.95-0.49,1.19-0.77
			c0.38-0.43,0.38-0.59-0.11-1.02l-0.47-0.42c-0.4-0.36-0.49-0.35-0.86-0.04l-0.34,0.29c-0.12,0.04-0.29-0.11-0.26-0.23
			c0.49-0.52,0.82-0.88,1.15-1.24c0.32-0.36,0.64-0.73,0.85-1c0.1-0.02,0.27,0.13,0.26,0.23l-0.12,0.2
			c-0.16,0.26-0.13,0.37,0.28,0.73L23.07,21.61z"/>
		<path fill="#FFFFFF" d="M28.1,14.76c1.33,1.73,0.97,3.65-0.73,4.97c-1.59,1.23-3.55,1.07-4.83-0.58
			c-1.21-1.57-0.97-3.68,0.68-4.96C24.87,12.92,26.86,13.15,28.1,14.76z M23.44,14.6c-0.97,0.75-0.79,2.06,0.22,3.39
			c0.74,0.97,2.28,2.26,3.57,1.26c1.04-0.8,0.66-2.12-0.33-3.41C25.87,14.49,24.42,13.84,23.44,14.6z"/>
		<path fill="#FFFFFF" d="M33.04,13.1c0.11,1.31,0.25,2.13,0.3,2.73c-0.05,0.08-0.14,0.16-0.27,0.23c-0.11,0.06-0.2,0.07-0.28,0.05
			c-0.22-0.19-0.62-0.58-0.9-0.81l-3.32-2.85c-0.78-0.67-0.84-0.67-1.16-0.59l-0.4,0.1c-0.12-0.06-0.18-0.23-0.12-0.32
			c0.46-0.23,0.76-0.36,1.22-0.6c0.41-0.21,0.78-0.42,1.31-0.72c0.1,0.02,0.18,0.19,0.17,0.3l-0.24,0.19
			c-0.14,0.12-0.17,0.21-0.13,0.28c0.04,0.07,0.37,0.37,0.86,0.79l1.82,1.58l0.68,0.59c-0.01-0.19-0.02-0.56-0.06-0.88l-0.1-1.01
			c-0.07-0.67-0.21-1.86-0.26-2.22c-0.03-0.2-0.05-0.31-0.08-0.37c-0.03-0.06-0.12-0.06-0.36,0l-0.32,0.09
			c-0.11-0.03-0.21-0.22-0.12-0.32c0.43-0.2,0.77-0.37,1.1-0.54c0.3-0.16,0.56-0.31,0.81-0.45c0.09,0,0.21,0.21,0.17,0.29
			l-0.21,0.17c-0.22,0.17-0.34,0.32-0.36,0.56c-0.04,0.39,0,1.01,0.07,1.88L33.04,13.1z"/>
		<path fill="#FFFFFF" d="M37.03,9.82c0.09,0.27,0.11,0.28,0.36,0.2l0.65-0.22c0.49-0.17,0.58-0.27,0.53-0.76l-0.03-0.25
			c0.04-0.1,0.28-0.18,0.35-0.11c0.08,0.31,0.19,0.65,0.31,1.01s0.25,0.7,0.37,1c-0.02,0.1-0.25,0.19-0.35,0.13l-0.13-0.22
			c-0.25-0.42-0.39-0.46-0.88-0.29l-0.65,0.22c-0.26,0.09-0.26,0.1-0.17,0.38l0.38,1.13c0.15,0.44,0.29,0.73,0.46,0.85
			c0.18,0.13,0.39,0.14,1.08-0.09c0.82-0.28,1.14-0.41,1.3-1.66c0.04-0.13,0.29-0.17,0.37-0.07c0.13,0.5,0.16,1.35,0.11,1.65
			c-0.51,0.15-1.42,0.45-2.2,0.71l-1.23,0.41c-0.46,0.15-0.92,0.32-1.62,0.58c-0.09-0.03-0.17-0.26-0.11-0.33l0.42-0.22
			c0.4-0.21,0.44-0.29,0.15-1.16L35.3,9.17c-0.29-0.86-0.37-0.9-0.82-0.84l-0.25,0.03c-0.1-0.03-0.17-0.25-0.09-0.34
			c0.45-0.13,0.92-0.28,1.37-0.43l2.01-0.68c0.61-0.2,1.14-0.4,1.26-0.46c0.06,0.15,0.36,0.81,0.62,1.43c0,0.12-0.21,0.21-0.34,0.16
			c-0.22-0.3-0.44-0.54-0.61-0.63c-0.24-0.12-0.56-0.14-1.03,0.02l-0.76,0.25c-0.31,0.11-0.31,0.12-0.19,0.47L37.03,9.82z"/>
		<path fill="#FFFFFF" d="M41.79,7.42c-0.16-0.99-0.2-1.09-0.62-1.08l-0.27,0c-0.11-0.03-0.15-0.28-0.04-0.35
			c0.73-0.17,1.5-0.33,2.43-0.49c0.84-0.14,1.58-0.12,1.99,0.04c0.63,0.24,1,0.69,1.11,1.32c0.14,0.88-0.39,1.35-0.81,1.65
			c-0.09,0.07-0.08,0.12-0.01,0.23c0.87,1.22,1.39,1.89,1.93,2.22c0.29,0.17,0.56,0.18,0.71,0.17c0.1,0.04,0.12,0.18,0.08,0.25
			c-0.15,0.09-0.46,0.17-0.77,0.22c-0.91,0.15-1.53-0.09-2.08-0.73c-0.4-0.47-0.71-0.92-1.02-1.41c-0.16-0.25-0.33-0.3-0.58-0.26
			c-0.34,0.06-0.36,0.08-0.33,0.28l0.2,1.21c0.15,0.91,0.22,0.97,0.67,0.97l0.27,0.01c0.08,0.04,0.12,0.27,0.06,0.35
			c-0.53,0.06-0.98,0.13-1.46,0.21c-0.49,0.08-0.93,0.16-1.44,0.26c-0.09-0.05-0.13-0.28-0.06-0.35l0.26-0.09
			c0.43-0.15,0.48-0.23,0.33-1.14L41.79,7.42z M43.35,8.46c0.06,0.34,0.09,0.37,0.67,0.28c0.36-0.06,0.55-0.18,0.71-0.4
			c0.14-0.19,0.28-0.54,0.18-1.12c-0.14-0.89-0.76-1.38-1.53-1.25c-0.41,0.07-0.42,0.1-0.34,0.57L43.35,8.46z"/>
		<path fill="#FFFFFF" d="M54.39,9.83c-0.01,0.65-0.02,1.28-0.01,1.61c-0.07,0.12-0.35,0.22-0.59,0.22c-0.01,0-0.33-0.52-0.79-1.1
			l-2.26-2.9c-0.57-0.72-0.89-1.14-1.07-1.3c-0.05,0.1-0.05,0.27-0.06,0.64l-0.03,1.94c-0.01,0.81,0.01,1.56,0.12,1.83
			c0.09,0.21,0.32,0.29,0.57,0.33l0.28,0.04c0.08,0.08,0.05,0.29-0.01,0.35c-0.54-0.03-0.94-0.05-1.34-0.05
			c-0.37-0.01-0.74,0-1.12,0.01c-0.06-0.06-0.08-0.27,0.01-0.35l0.17-0.03c0.27-0.05,0.47-0.11,0.55-0.32
			c0.11-0.27,0.16-1.02,0.17-1.83l0.04-2.54c0.01-0.55,0-0.71-0.06-0.85c-0.08-0.17-0.22-0.29-0.56-0.35l-0.28-0.04
			c-0.07-0.08-0.05-0.32,0.05-0.35c0.47,0.03,0.97,0.05,1.38,0.05c0.34,0.01,0.63,0,0.84-0.01c0.09,0.45,0.73,1.22,1.61,2.31l0.82,1
			c0.43,0.53,0.71,0.88,0.94,1.12c0.04-0.1,0.04-0.27,0.05-0.45l0.02-1.38c0.01-0.81-0.01-1.56-0.12-1.83
			c-0.09-0.21-0.3-0.29-0.57-0.33l-0.27-0.04c-0.08-0.08-0.05-0.29,0.01-0.35c0.54,0.03,0.93,0.05,1.34,0.05
			c0.37,0.01,0.73,0,1.12-0.01c0.06,0.06,0.08,0.27-0.01,0.35L55.15,5.3c-0.26,0.04-0.45,0.11-0.54,0.32
			c-0.11,0.27-0.17,1.02-0.18,1.83L54.39,9.83z"/>
		<path fill="#FFFFFF" d="M63.1,9.75c-0.44,2.14-2.14,3.12-4.24,2.69c-1.97-0.41-3.13-2-2.71-4.04c0.4-1.94,2.16-3.14,4.21-2.71
			C62.4,6.1,63.51,7.76,63.1,9.75z M60.19,6.11c-1.2-0.25-2.08,0.74-2.42,2.38c-0.25,1.2-0.22,3.2,1.37,3.53
			c1.28,0.27,2.04-0.88,2.37-2.47C61.86,7.87,61.4,6.36,60.19,6.11z"/>
		<path fill="#FFFFFF" d="M65.56,8.91c0.38-0.93,0.4-1.04,0.04-1.25l-0.24-0.14c-0.07-0.08,0.02-0.32,0.15-0.32
			c0.71,0.24,1.45,0.5,2.33,0.85c0.79,0.32,1.41,0.72,1.68,1.08c0.41,0.53,0.5,1.11,0.26,1.7c-0.34,0.82-1.04,0.95-1.55,0.99
			c-0.11,0.01-0.13,0.06-0.13,0.18c0.1,1.49,0.2,2.34,0.49,2.9c0.16,0.29,0.38,0.45,0.51,0.51c0.06,0.08,0.01,0.22-0.06,0.26
			c-0.17,0-0.48-0.1-0.77-0.22c-0.85-0.35-1.26-0.87-1.4-1.71c-0.1-0.61-0.12-1.15-0.14-1.73c-0.01-0.29-0.13-0.43-0.36-0.52
			c-0.32-0.13-0.35-0.12-0.43,0.06l-0.46,1.14c-0.35,0.85-0.32,0.94,0.07,1.18l0.23,0.15c0.05,0.07-0.04,0.3-0.13,0.32
			c-0.48-0.22-0.91-0.4-1.35-0.58c-0.46-0.19-0.87-0.35-1.36-0.52c-0.05-0.09,0.04-0.31,0.13-0.32l0.27,0.06
			c0.45,0.1,0.53,0.05,0.88-0.8L65.56,8.91z M66.35,10.61c-0.13,0.32-0.12,0.36,0.43,0.59c0.33,0.14,0.56,0.13,0.81,0.03
			c0.22-0.09,0.52-0.32,0.74-0.86c0.34-0.83,0.07-1.57-0.65-1.87c-0.38-0.15-0.41-0.13-0.59,0.31L66.35,10.61z"/>
		<path fill="#FFFFFF" d="M70.63,16.98c-0.79-0.47-1.14-0.99-1.26-1.2c-0.05-0.29,0.21-0.97,0.56-1.55
			c0.13-0.08,0.33,0.03,0.34,0.17c-0.16,0.66-0.06,1.79,0.67,2.23c0.63,0.38,1.19,0.12,1.45-0.31c0.42-0.69,0.01-1.5-0.35-2.06
			c-0.43-0.68-0.8-1.6-0.29-2.45c0.57-0.97,1.73-1.19,2.97-0.44c0.28,0.17,0.61,0.42,0.9,0.72c0.09,0.1,0.16,0.16,0.25,0.24
			c-0.04,0.23-0.24,0.74-0.58,1.32c-0.1,0.08-0.32-0.04-0.35-0.17c0.12-0.52,0.12-1.37-0.49-1.74c-0.57-0.34-1.1-0.16-1.35,0.27
			c-0.24,0.39-0.1,0.97,0.19,1.45l0.39,0.64c0.36,0.6,0.74,1.51,0.17,2.45C73.21,17.59,71.93,17.76,70.63,16.98z"/>
		<path fill="#FFFFFF" d="M80.03,17.13c0.65-0.66,0.65-0.75,0.39-1.13l-0.14-0.21c-0.01-0.1,0.13-0.26,0.25-0.23
			c0.33,0.35,0.68,0.71,1.02,1.04c0.35,0.34,0.71,0.68,1.06,1c0.02,0.1-0.14,0.26-0.24,0.24l-0.2-0.14
			c-0.38-0.26-0.48-0.24-1.13,0.42l-1.62,1.65c-0.82,0.84-1.63,1.85-0.54,2.91c0.91,0.9,1.98,0.37,2.94-0.61l0.85-0.86
			c0.57-0.58,1.07-1.15,1.17-1.41c0.08-0.21-0.03-0.41-0.19-0.63l-0.16-0.22c0-0.11,0.15-0.24,0.24-0.25
			c0.37,0.39,0.64,0.67,0.94,0.96c0.26,0.26,0.54,0.51,0.82,0.76c0,0.08-0.12,0.24-0.24,0.24l-0.16-0.1
			c-0.23-0.14-0.41-0.23-0.62-0.14c-0.26,0.11-0.82,0.62-1.39,1.2l-0.78,0.8c-0.66,0.67-1.33,1.22-2.14,1.27
			c-0.64,0.03-1.34-0.31-1.92-0.87c-0.54-0.53-0.94-1.09-1.02-1.79c-0.07-0.67,0.29-1.35,1.05-2.13L80.03,17.13z"/>
		<path fill="#FFFFFF" d="M85.92,29.45c-0.53,0.37-1.05,0.73-1.3,0.94c-0.14,0.01-0.39-0.15-0.53-0.35c0-0.01,0.22-0.57,0.43-1.29
			l1.01-3.53c0.25-0.88,0.4-1.39,0.42-1.63c-0.11,0.02-0.25,0.11-0.55,0.33l-1.59,1.11c-0.66,0.46-1.25,0.93-1.41,1.17
			c-0.12,0.19-0.05,0.42,0.07,0.66l0.13,0.25c-0.02,0.11-0.2,0.22-0.29,0.2c-0.29-0.45-0.51-0.79-0.74-1.11
			c-0.21-0.3-0.43-0.6-0.67-0.9c0.01-0.08,0.17-0.22,0.29-0.2l0.12,0.12c0.2,0.19,0.37,0.32,0.58,0.26
			c0.28-0.06,0.92-0.47,1.58-0.93l2.08-1.46c0.45-0.32,0.57-0.42,0.65-0.54c0.09-0.16,0.11-0.35-0.05-0.66l-0.13-0.25
			c0.03-0.1,0.23-0.23,0.31-0.17c0.25,0.4,0.53,0.81,0.77,1.15c0.19,0.28,0.37,0.51,0.51,0.67c-0.31,0.34-0.56,1.31-0.92,2.66
			l-0.33,1.25c-0.17,0.66-0.29,1.1-0.35,1.42c0.1-0.02,0.24-0.12,0.39-0.23l1.13-0.79c0.66-0.46,1.25-0.93,1.41-1.17
			c0.12-0.19,0.05-0.41-0.07-0.66l-0.12-0.24c0.02-0.11,0.2-0.21,0.29-0.2c0.29,0.45,0.51,0.78,0.74,1.11
			c0.21,0.3,0.43,0.59,0.67,0.9c-0.01,0.08-0.17,0.22-0.29,0.2l-0.13-0.13c-0.18-0.19-0.36-0.3-0.58-0.25
			c-0.28,0.07-0.92,0.46-1.58,0.93L85.92,29.45z"/>
		<path fill="#FFFFFF" d="M87.49,33.01c-0.84,0.42-0.87,0.51-0.74,0.96l0.08,0.27c-0.02,0.1-0.23,0.19-0.32,0.15
			c-0.22-0.49-0.44-0.93-0.65-1.35c-0.22-0.43-0.45-0.87-0.71-1.34c0.02-0.1,0.22-0.2,0.31-0.16l0.17,0.23
			c0.28,0.38,0.37,0.4,1.21-0.03l3.29-1.66c0.84-0.42,0.87-0.51,0.74-0.96l-0.08-0.27c0.02-0.1,0.22-0.2,0.31-0.16
			c0.23,0.49,0.44,0.94,0.66,1.37c0.21,0.42,0.45,0.86,0.71,1.33c-0.02,0.1-0.22,0.2-0.31,0.16l-0.17-0.23
			c-0.28-0.38-0.37-0.4-1.21,0.03L87.49,33.01z"/>
		<path fill="#FFFFFF" d="M90.69,38.32c-1.31-0.09-2.14-0.07-2.74-0.11c-0.07-0.06-0.14-0.16-0.19-0.3
			c-0.04-0.11-0.04-0.21-0.01-0.28c0.22-0.19,0.66-0.53,0.94-0.77L92,34c0.78-0.67,0.79-0.73,0.76-1.05l-0.04-0.41
			c0.08-0.11,0.26-0.14,0.33-0.07c0.16,0.49,0.25,0.8,0.42,1.29c0.15,0.43,0.3,0.84,0.52,1.41c-0.03,0.1-0.21,0.15-0.32,0.12
			l-0.15-0.26c-0.1-0.16-0.18-0.2-0.26-0.17c-0.08,0.03-0.42,0.31-0.91,0.74l-1.84,1.57l-0.69,0.59c0.19,0.02,0.56,0.06,0.88,0.08
			l1.01,0.05c0.68,0.03,1.88,0.07,2.24,0.07c0.2,0,0.32,0,0.37-0.02c0.07-0.02,0.08-0.11,0.06-0.36l-0.04-0.33
			c0.05-0.1,0.25-0.17,0.33-0.07c0.13,0.45,0.25,0.81,0.37,1.17c0.11,0.32,0.22,0.6,0.33,0.87c-0.01,0.09-0.23,0.18-0.31,0.13
			l-0.13-0.23c-0.14-0.25-0.26-0.39-0.5-0.44c-0.38-0.1-0.99-0.15-1.87-0.21L90.69,38.32z"/>
		<path fill="#FFFFFF" d="M93.34,42.76c-0.28,0.05-0.29,0.06-0.25,0.33l0.12,0.68c0.09,0.51,0.18,0.62,0.67,0.63l0.25,0
			c0.09,0.05,0.13,0.3,0.06,0.36c-0.32,0.04-0.67,0.09-1.05,0.16c-0.37,0.07-0.73,0.14-1.04,0.22c-0.1-0.03-0.15-0.28-0.08-0.36
			l0.24-0.09c0.46-0.18,0.51-0.31,0.42-0.83l-0.12-0.68c-0.05-0.27-0.06-0.27-0.35-0.22l-1.17,0.21c-0.45,0.08-0.76,0.18-0.91,0.32
			c-0.15,0.16-0.2,0.36-0.07,1.08c0.15,0.86,0.24,1.19,1.45,1.53c0.12,0.06,0.13,0.31,0.02,0.37c-0.52,0.05-1.36-0.04-1.65-0.13
			c-0.07-0.52-0.23-1.47-0.38-2.28l-0.23-1.28c-0.08-0.47-0.18-0.95-0.33-1.69c0.04-0.09,0.28-0.13,0.34-0.06l0.15,0.45
			c0.15,0.43,0.22,0.48,1.12,0.32l3.67-0.65c0.9-0.16,0.94-0.23,0.95-0.69l0-0.25c0.04-0.1,0.27-0.13,0.35-0.04
			c0.06,0.47,0.14,0.95,0.22,1.42l0.37,2.09c0.11,0.63,0.22,1.19,0.26,1.31c-0.16,0.04-0.85,0.23-1.5,0.4
			c-0.12-0.02-0.17-0.24-0.1-0.36c0.33-0.17,0.6-0.36,0.71-0.51c0.15-0.22,0.22-0.54,0.13-1.02l-0.14-0.79
			c-0.06-0.32-0.08-0.32-0.44-0.26L93.34,42.76z"/>
		<path fill="#FFFFFF" d="M95.02,47.84c1-0.02,1.11-0.04,1.16-0.46l0.04-0.27c0.05-0.1,0.3-0.11,0.35,0.01
			c0.06,0.75,0.12,1.53,0.13,2.48c0.02,0.85-0.1,1.58-0.32,1.97c-0.33,0.59-0.82,0.89-1.46,0.91c-0.89,0.02-1.28-0.58-1.52-1.03
			c-0.05-0.1-0.11-0.1-0.22-0.05c-1.33,0.68-2.07,1.11-2.47,1.59c-0.21,0.26-0.26,0.52-0.27,0.67c-0.05,0.09-0.2,0.09-0.26,0.04
			c-0.07-0.16-0.1-0.48-0.1-0.79c-0.02-0.92,0.3-1.51,1.01-1.96c0.52-0.33,1.01-0.57,1.53-0.81c0.27-0.12,0.34-0.29,0.34-0.54
			c-0.01-0.35-0.03-0.37-0.23-0.37l-1.23,0.02c-0.92,0.02-0.99,0.08-1.06,0.53l-0.04,0.27c-0.05,0.07-0.29,0.08-0.35,0.01
			c0.01-0.53,0.01-0.99,0-1.47c-0.01-0.5-0.03-0.94-0.06-1.46c0.06-0.08,0.3-0.09,0.35-0.01l0.05,0.27
			c0.09,0.45,0.16,0.51,1.08,0.49L95.02,47.84z M93.77,49.23c-0.35,0.01-0.38,0.04-0.37,0.63c0.01,0.36,0.1,0.57,0.29,0.75
			c0.17,0.17,0.5,0.35,1.09,0.34c0.9-0.02,1.47-0.56,1.46-1.34c-0.01-0.41-0.04-0.43-0.52-0.42L93.77,49.23z"/>
		<path fill="#FFFFFF" d="M89.64,55.73c0.12-0.91,0.45-1.44,0.59-1.64c0.24-0.16,0.97-0.2,1.65-0.11c0.12,0.09,0.1,0.32-0.02,0.38
			c-0.67,0.12-1.67,0.66-1.78,1.5c-0.09,0.73,0.37,1.14,0.86,1.2c0.8,0.1,1.38-0.59,1.75-1.14c0.45-0.67,1.15-1.38,2.13-1.25
			c1.12,0.13,1.78,1.11,1.6,2.55c-0.04,0.33-0.13,0.73-0.3,1.11c-0.06,0.12-0.09,0.21-0.12,0.33c-0.23,0.05-0.78,0.08-1.44,0
			c-0.11-0.07-0.09-0.31,0.02-0.39c0.53-0.1,1.31-0.44,1.4-1.15c0.08-0.66-0.3-1.07-0.79-1.13c-0.46-0.06-0.93,0.29-1.25,0.76
			l-0.43,0.61c-0.41,0.57-1.08,1.28-2.17,1.14C90.11,58.33,89.44,57.23,89.64,55.73z"/>
		<path fill="#FFFFFF" d="M90.12,61.7c-0.91-0.23-0.99-0.19-1.18,0.24l-0.12,0.26c-0.08,0.06-0.3,0-0.34-0.1
			c0.15-0.52,0.28-0.99,0.4-1.45c0.12-0.46,0.23-0.95,0.34-1.48c0.08-0.06,0.3-0.01,0.34,0.09l-0.02,0.28
			c-0.04,0.47,0.02,0.54,0.93,0.77l3.57,0.9c0.91,0.23,0.99,0.19,1.18-0.24l0.12-0.26c0.08-0.06,0.3-0.01,0.34,0.09
			c-0.15,0.52-0.29,1-0.4,1.46c-0.12,0.46-0.23,0.94-0.34,1.47c-0.08,0.06-0.3,0.01-0.34-0.09l0.02-0.28
			c0.04-0.46-0.02-0.54-0.93-0.77L90.12,61.7z"/>
		<path fill="#FFFFFF" d="M92.93,67.19c0.22,0.09,0.27,0.11,0.36-0.12l0.23-0.58c0.27-0.68-0.02-1.02-0.59-1.57
			c-0.01-0.13,0.08-0.3,0.22-0.31c0.56,0.45,1.12,0.73,1.45,0.94c0.01,0.05,0.01,0.1-0.01,0.15c-0.02,0.05-0.05,0.09-0.09,0.12
			c-0.18-0.02-0.22,0-0.51,0.7l-1.39,3.45c-0.25,0.61-0.29,0.75-0.13,0.92c0,0.04,0,0.08-0.02,0.13s-0.08,0.11-0.12,0.11
			c-0.28-0.22-1-0.59-1.54-0.78c-0.07-0.08,0.02-0.34,0.11-0.35c0.66,0.08,1.15,0.13,1.42-0.57l0.22-0.56
			c0.09-0.22,0.07-0.26-0.17-0.36l-4.09-1.64c-0.86-0.35-0.96-0.32-1.18,0.08l-0.2,0.35c-0.08,0.04-0.3-0.04-0.33-0.13
			c0.26-0.59,0.46-1.05,0.62-1.47c0.18-0.45,0.36-0.93,0.6-1.59c0.09-0.05,0.3,0.03,0.33,0.13l-0.12,0.44
			c-0.12,0.44-0.06,0.53,0.8,0.87L92.93,67.19z"/>
		<path fill="#FFFFFF" d="M85.3,72.66c-0.8-0.48-0.9-0.47-1.18-0.11l-0.25,0.32c-0.09,0.03-0.28-0.09-0.3-0.18
			c0.35-0.55,0.61-0.96,0.86-1.37c0.25-0.41,0.5-0.85,0.78-1.36c0.09-0.04,0.29,0.08,0.3,0.18l-0.13,0.32
			c-0.17,0.42-0.14,0.51,0.66,0.99l0.43,0.26c0.43,0.26,0.57,0.33,1.16,0.38l2.72,0.24c0.45,0.04,0.64,0.04,0.87-0.22l0.23-0.26
			c0.12-0.04,0.32,0.1,0.28,0.21c-0.25,0.38-0.45,0.69-0.75,1.19c-0.31,0.52-0.57,0.97-0.72,1.27c-0.08,0.06-0.29-0.04-0.31-0.16
			l0.11-0.33c0.06-0.17,0.05-0.25,0.05-0.25c-0.07-0.04-0.22-0.08-0.73-0.14l-1.16-0.15c-0.36-0.04-0.87-0.08-1.15-0.11
			c0.27,0.5,0.67,1.1,0.97,1.59c0.42,0.67,0.62,0.93,0.72,0.99c0.05,0.03,0.18-0.08,0.34-0.26l0.13-0.14
			c0.08-0.04,0.3,0.08,0.29,0.19c-0.22,0.33-0.42,0.64-0.6,0.95c-0.2,0.33-0.35,0.6-0.48,0.86c-0.1,0.08-0.3-0.04-0.32-0.15
			l0.09-0.25c0.07-0.17,0.12-0.4,0.06-0.57c-0.09-0.23-0.27-0.62-0.77-1.48l-0.65-1.13c-0.27-0.46-0.45-0.65-0.94-0.95L85.3,72.66z"
			/>
	</g>
	<g>
		<path fill="#002F51" d="M92.13,91.69c0-1.83,1.4-3.17,3.31-3.17c1.91,0,3.31,1.33,3.31,3.17c0,1.76-1.4,3.13-3.31,3.13
			C93.53,94.82,92.13,93.45,92.13,91.69z M98.07,91.65c0-1.55-1.08-2.52-2.63-2.52c-1.55,0-2.63,0.97-2.63,2.52
			c0,1.51,1.08,2.56,2.66,2.56C96.99,94.21,98.07,93.16,98.07,91.65z M94.07,91.15v-0.9c0-0.22-0.14-0.25-0.43-0.25
			c-0.04,0-0.07-0.04-0.07-0.11c0-0.11,0.07-0.14,0.18-0.14h0.14c0.07,0,0.36,0.04,0.61,0.04c0.32,0,0.47-0.04,0.83-0.04
			c0.61,0,1.58,0.11,1.58,0.97c0,0.36-0.14,0.65-0.76,1.08l0.65,0.76c0.47,0.54,0.54,0.54,0.61,0.54c0.07,0,0.11,0.04,0.11,0.11
			c0,0.11-0.04,0.14-0.32,0.14c-0.47,0-0.86,0.04-1.4-0.68l-0.5-0.68h-0.43v0.32c0,0.65,0.04,0.72,0.07,0.76
			c0.07,0.04,0.25,0.04,0.36,0.04c0.07,0,0.11,0,0.11,0.11c0,0.11-0.07,0.14-0.14,0.14h-0.14c-0.07,0-0.4-0.04-0.58-0.04
			c-0.11,0-0.47,0.04-0.54,0.04h-0.18c-0.07,0-0.25-0.04-0.25-0.14c0-0.07,0.04-0.11,0.11-0.11c0.32,0,0.36,0,0.4-0.22
			c0.04-0.18,0-0.43,0-0.94V91.15z M94.87,91.51c0.11,0.07,0.36,0.11,0.5,0.11c0.11,0,0.22,0,0.32-0.07
			c0.18-0.11,0.32-0.32,0.32-0.61c0-0.43-0.32-0.79-0.83-0.79c-0.04,0-0.25,0-0.32,0.07V91.51z"/>
	</g>
</g>
</svg>
